<?xml version="1.0" standalone="no"?>
<!DOCTYPE svg PUBLIC "-//W3C//DTD SVG 20010904//EN"
 "http://www.w3.org/TR/2001/REC-SVG-20010904/DTD/svg10.dtd">
<svg version="1.0" xmlns="http://www.w3.org/2000/svg"
 width="3965.000000pt" height="2963.000000pt" viewBox="0 0 3965.000000 2963.000000"
 preserveAspectRatio="xMidYMid meet">

<g transform="translate(0.000000,2963.000000) scale(0.100000,-0.100000)"
fill="#000000" stroke="none">
<path d="M7105 29623 c-679 -55 -1202 -218 -1750 -544 -287 -171 -523 -358
-777 -617 -296 -301 -519 -614 -703 -985 -203 -409 -322 -816 -387 -1327 -9
-73 -12 -1300 -15 -5222 l-3 -5128 -1735 0 -1735 0 0 -605 0 -605 1735 0 1735
0 3 -5507 c2 -4222 6 -5530 15 -5603 65 -511 184 -918 387 -1327 184 -371 407
-684 703 -985 254 -259 490 -446 777 -617 489 -291 973 -455 1555 -528 139
-17 581 -18 11015 -18 8960 0 10891 2 10990 13 1175 130 2200 753 2840 1727
334 508 517 1004 612 1657 15 101 17 300 20 1811 2 1114 7 1697 14 1697 5 0
98 9 206 20 1614 166 3054 797 4283 1877 1018 895 1780 1953 2227 3092 286
730 449 1461 515 2321 17 218 17 973 0 1190 -101 1306 -439 2392 -1069 3439
-557 925 -1401 1830 -2320 2486 -1080 771 -2294 1227 -3636 1365 -108 11 -201
20 -206 20 -7 0 -12 583 -14 1698 -3 1510 -5 1709 -20 1810 -68 467 -174 828
-352 1200 -503 1047 -1452 1819 -2574 2091 -146 36 -297 64 -471 88 -118 16
-762 17 -10975 18 -5967 1 -10868 0 -10890 -2z m21790 -1307 c152 -25 391 -86
510 -130 143 -53 403 -183 525 -263 577 -379 975 -960 1119 -1634 51 -241 51
-225 51 -1954 l0 -1611 -147 -13 c-1328 -111 -2601 -567 -3673 -1314 -741
-517 -1445 -1199 -1983 -1922 -887 -1191 -1364 -2481 -1489 -4030 -17 -215
-17 -1045 0 -1260 92 -1141 369 -2120 860 -3040 814 -1528 2241 -2879 3774
-3574 789 -357 1643 -579 2511 -652 l147 -13 0 -1611 c0 -1729 0 -1713 -51
-1954 -144 -674 -542 -1255 -1119 -1634 -122 -80 -382 -210 -525 -263 -127
-47 -366 -107 -520 -130 -116 -18 -449 -19 -10940 -19 -8947 0 -10837 2
-10920 13 -562 75 -1064 315 -1465 699 -416 399 -673 890 -773 1483 l-21 125
-3 5488 -3 5488 1297 -4 c1415 -3 1354 -1 1651 -62 704 -146 1326 -539 1817
-1150 97 -120 252 -361 322 -501 l68 -134 693 0 c498 0 692 3 692 11 0 23
-103 270 -168 405 -199 405 -465 783 -781 1108 -354 363 -731 636 -1195 866
l-178 89 100 50 c208 104 481 281 676 438 526 421 942 978 1179 1578 48 123
127 362 127 386 0 5 -300 9 -683 9 l-683 0 -43 -110 c-131 -333 -329 -635
-596 -909 -178 -182 -301 -286 -490 -413 -358 -239 -748 -382 -1185 -432 -115
-14 -315 -16 -1378 -16 l-1242 0 3 5108 3 5107 21 125 c100 593 357 1084 773
1483 347 333 783 564 1248 661 64 13 160 29 212 35 52 6 109 13 125 15 17 1
4892 3 10835 2 10453 -1 10809 -2 10915 -20z m3460 -6800 c576 -57 1093 -173
1600 -358 1090 -400 2093 -1147 2910 -2165 315 -393 565 -786 785 -1236 357
-728 556 -1449 637 -2307 25 -264 25 -1006 0 -1270 -66 -703 -220 -1341 -468
-1940 -81 -197 -283 -604 -389 -785 -538 -917 -1343 -1766 -2230 -2350 -857
-565 -1782 -888 -2845 -991 -221 -21 -822 -30 -1055 -15 -1597 102 -2938 706
-4104 1851 -1179 1158 -1853 2503 -2026 4049 -31 285 -42 487 -42 816 0 329
11 531 42 816 173 1546 847 2891 2026 4049 1152 1131 2474 1734 4054 1849 192
14 915 5 1105 -13z"/>
<path d="M17260 15415 l0 -7195 -1920 0 -1920 0 0 -600 0 -600 4510 0 4510 0
0 600 0 600 -1920 0 -1920 0 0 7195 0 7195 -670 0 -670 0 0 -7195z"/>
</g>
</svg>
